<?xml version="1.0" encoding="UTF-8"?>
<svg version="1.1" xmlns="http://www.w3.org/2000/svg" width="196" height="186">
<path d="M0 0 C7.17036419 3.68725134 10.785959 7.95547966 14.125 15.25 C16.95366757 24.46540755 14.35280695 32.03172485 10.0625 40.296875 C6.53863554 46.02315475 1.34144402 48.07129426 -4.95703125 49.83203125 C-12.01965485 51.3711366 -17.62001782 49.39820295 -23.875 46.25 C-29.71513458 42.39330735 -33.47833709 36.89964993 -35.4921875 30.1953125 C-36.99716739 22.54755756 -35.1995152 16.17153166 -31.875 9.25 C-24.22197836 -0.52886099 -11.7036317 -5.00742632 0 0 Z " fill="#B73DB9" transform="translate(86.875,126.75)"/>
<path d="M0 0 C6.23153449 5.36692226 10.2590455 11.22243077 11.30859375 19.40625 C11.63385721 25.79324167 10.05964879 30.45638546 7 36 C6.443125 37.0725 5.88625 38.145 5.3125 39.25 C0.94296374 44.44620528 -5.32220886 47.54277229 -12.078125 48.203125 C-20.86878169 48.3928514 -26.77879054 45.95869031 -33.23828125 39.96875 C-38.28015022 34.33437759 -40.32992531 27.63496777 -40.21875 20.14453125 C-39.84306546 16.46148106 -38.54738536 13.33592169 -37 10 C-36.73316406 9.37867187 -36.46632812 8.75734375 -36.19140625 8.1171875 C-33.09845475 1.76632709 -27.93273631 -0.90022388 -21.5 -3.3125 C-13.44791967 -4.89415864 -7.12641451 -4.21260319 0 0 Z " fill="#B73DB9" transform="translate(91,72)"/>
<path d="M0 0 C6.58213586 3.83687722 10.685955 9.74899649 13.02734375 16.94140625 C14.80818926 24.69765075 13.10796788 31.02221393 9.5 38 C5.77975481 43.79920574 0.97860914 46.90028457 -5.5 49 C-12.42633447 49.93408582 -18.33945986 49.50305224 -24.5 46 C-25.09425781 45.67128906 -25.68851563 45.34257813 -26.30078125 45.00390625 C-31.94402698 41.51161928 -35.19567876 36.29512152 -37.11328125 29.98046875 C-38.84341075 21.1201086 -36.51757151 13.68243854 -31.6875 6.1875 C-23.03509764 -2.46490236 -11.57911807 -5.25202007 0 0 Z " fill="#B73DB9" transform="translate(87.5,14)"/>
<path d="M0 0 C3.97626954 2.55221022 5.76684773 6.01676441 7.1875 10.4375 C8.12314822 16.05138931 6.51185682 20.29323078 3.86328125 25.1875 C1.02264559 29.00150033 -2.21112242 30.50226065 -6.8125 31.4375 C-12.82845217 31.80420549 -17.18885658 30.41598387 -21.8125 26.4375 C-25.79098387 21.81385658 -27.17920549 17.45345217 -26.8125 11.4375 C-25.88170245 6.85797608 -24.34715623 3.64212263 -20.6328125 0.7265625 C-13.48266676 -3.30513962 -7.39000573 -3.49059845 0 0 Z " fill="#FDAEC7" transform="translate(138.8125,23.5625)"/>
<path d="M0 0 C4.61157284 3.57632179 7.04043033 6.93585306 8.0625 12.6875 C8.42371151 17.90304182 6.96624037 22.06259987 4.0625 26.375 C-0.64380825 30.21688428 -4.63412465 31.76099678 -10.74609375 31.6484375 C-14.65326871 31.16091121 -17.81596455 29.7628708 -20.9375 27.375 C-22.69199489 25.10477462 -23.71679435 23.01172419 -24.9375 20.375 C-25.2675 19.715 -25.5975 19.055 -25.9375 18.375 C-26.76179017 11.78067864 -24.61888735 6.83833548 -20.9375 1.375 C-15.39224033 -3.11401973 -6.30862539 -3.24948592 0 0 Z " fill="#FDAEC7" transform="translate(136.9375,135.625)"/>
<path d="M0 0 C4.75982924 2.62772498 7.04616381 6.26349144 8.75 11.375 C9.33724596 17.36490875 8.16188403 21.52118878 4.75 26.375 C1.92909432 29.54851888 -0.69465076 31.1161569 -4.90234375 31.81640625 C-11.19908351 32.08416885 -15.26269717 31.24270424 -20.25 27.375 C-23.70928291 23.46054829 -25.05510894 19.87653682 -25.41015625 14.75 C-25.12015123 10.44943775 -23.6451242 6.93204457 -21.25 3.375 C-14.79138367 -1.89733986 -7.69558629 -3.4666099 0 0 Z " fill="#FDAEC7" transform="translate(137.25,79.625)"/>
</svg>
